PathFileType	4	(X/Y/Z)	F:\MotionCapture\20160217\3\Generated_files\2_Test02-Dynamic.trc
DataRate	CameraRate	NumFrames	NumMarkers	Units	OrigDataRate	OrigDataStartFrame	OrigNumFrames
120.00	120.00	       9	39	mm	120.00	549	       627
Frame#	Time	Top.Head			Front.Head			Rear.Head			R.Shoulder			R.Offset			R.Elbow			R.Wrist			L.Shoulder			L.Elbow			L.Wrist			R.ASIS			L.ASIS			V.Sacral			R.Thigh			R.Knee			R.Shank			R.Ankle			R.Heel			R.Toe			L.Thigh			L.Knee			L.Shank			L.Ankle			L.Heel			L.Toe			R1			R2			R3			R4			R5			R6			R7			L1			L2			L3			L4			L5			L6			L7			V_Mid_ASIS			V_Pelvis_Origin			V_R.Hip_JC			V_L.Hip_JC			V_R.Knee_JC			V_L.Knee_JC			V_R.Ankle_JC			V_L.Ankle_JC			V_Mid_Hip			V_Mid_Shoulder			V_R.Hand			V_L.Hand			V_R.Toe_Offset_Static			V_L.Toe_Offset_Static			V_R.Toe_Offset			V_L.Toe_Offset			
		X1	Y1	Z1	X2	Y2	Z2	X3	Y3	Z3	X4	Y4	Z4	X5	Y5	Z5	X6	Y6	Z6	X7	Y7	Z7	X8	Y8	Z8	X9	Y9	Z9	X10	Y10	Z10	X11	Y11	Z11	X12	Y12	Z12	X13	Y13	Z13	X14	Y14	Z14	X15	Y15	Z15	X16	Y16	Z16	X17	Y17	Z17	X18	Y18	Z18	X19	Y19	Z19	X20	Y20	Z20	X21	Y21	Z21	X22	Y22	Z22	X23	Y23	Z23	X24	Y24	Z24	X25	Y25	Z25	X26	Y26	Z26	X27	Y27	Z27	X28	Y28	Z28	X29	Y29	Z29	X30	Y30	Z30	X31	Y31	Z31	X32	Y32	Z32	X33	Y33	Z33	X34	Y34	Z34	X35	Y35	Z35	X36	Y36	Z36	X37	Y37	Z37	X38	Y38	Z38	X39	Y39	Z39	

549	4.567																																																																																																																																																																						-3115.63550	-267.28033	71.86509	-3131.72827	-323.36319	347.11053	-3292.65894	-252.26996	1680.00305	-3110.24731	-145.75414	1388.21436	-2965.45361	-41.78943	839.45001	-3022.88257	-423.72565	85.41108	-3011.29004	-23.40552	1094.56433	-3055.71973	-405.71912	82.05743	-3280.85693	-5.18597	1259.43384	-3659.32617	9.38758	32.69585	-3138.08472	-285.95001	659.22516	-3555.08252	172.97165	76.27840	-3079.99438	-287.14044	50.28485	-3348.10571	41.59352	926.81409	-3150.83154	-250.76016	43.92857	-3557.76709	58.30257	55.49089	-3083.47510	-251.50438	480.13406	-3201.06836	-303.36865	51.21531	-3037.40771	-372.02856	78.86892	-3148.34009	-364.39273	76.62003	-3381.97314	-401.91751	1585.07532	-3037.86328	-326.37317	65.79317	-3199.48950	-256.97855	39.52612	
550	4.575																																																																																																																																																																						-3105.03613	-314.50101	42.80358	-3284.46655	-257.88721	1678.56665	-3104.41455	-146.82774	1386.42249	-3518.55640	129.42400	65.38761	-2960.10425	-41.72628	838.11096	-3012.04736	-425.78806	86.16734	-3006.76074	-21.06044	1092.22559	-3045.62622	-409.32584	82.86482	-3278.05200	-9.59692	1257.98547	-3075.82056	-252.52827	479.77856	-3123.62695	-325.85577	346.90121	-3659.19360	10.43638	31.19806	-3131.51172	-287.44803	658.95007	-3073.18726	-291.87860	49.52681	-3618.55396	49.79076	40.73506	-3586.00000	158.79201	69.93625	-3347.17505	37.24952	925.88110	-3191.87964	-311.68066	49.28865	-3027.86597	-375.43683	78.82458	-3139.16040	-370.46494	76.69849	-3029.52051	-330.12674	65.51276	-3192.42090	-263.86310	37.60184	
551	4.583																																																																																																																																																																						-3003.84619	-22.49917	1090.70996	-3276.61084	-262.31851	1677.51465	-3098.70361	-147.85440	1383.87122	-3519.59790	129.07045	65.48627	-2954.36987	-39.85914	836.45142	-3002.65991	-426.37747	88.14219	-3035.76489	-411.78717	82.82284	-3274.91553	-13.54296	1256.27136	-3069.86743	-253.34644	479.02429	-3116.13428	-328.86359	346.62537	-3659.48975	10.62091	31.39796	-3124.90405	-288.93390	657.75641	-3128.56494	-374.48740	75.26536	-3618.80737	50.52346	42.93349	-3138.67578	-262.76260	42.41498	-3587.40405	159.68457	72.28334	-3510.58545	176.06441	86.04001	-3066.05591	-297.79501	48.60710	-3345.02246	32.80631	924.39362	-3230.00415	1245.90796	927.83630	-3185.88867	-318.11038	50.28690	-3018.98853	-377.90067	78.80742	-3021.60425	-332.73654	65.63223	-3186.27930	-270.44238	36.78339	
552	4.592																																																																																																																																																																						-3105.76880	-332.55734	346.56015	-3267.76880	-268.29214	1675.90698	-2948.76904	-39.39972	834.65222	-2993.07422	-429.20688	86.83537	-2997.42188	-22.21674	1088.68042	-3027.04370	-414.50879	82.83177	-3271.12866	-18.20603	1254.25684	-3064.30347	-253.64131	477.68240	-3659.75586	10.49424	31.63421	-3116.44751	-290.04834	656.35620	-3342.93066	28.00562	923.27820	-3122.29883	-380.99835	76.10161	-3135.26782	-262.11676	46.32518	-3587.92847	157.97682	73.83151	-3060.29272	-300.90665	48.15490	-3090.83008	-149.21773	1381.25659	-3168.75146	-313.20703	1587.94653	-3510.44629	170.98663	90.46597	-3178.10083	-324.16174	47.84397	-3010.95557	-380.65128	78.18034	-3613.88013	88.79917	41.25419	-3097.12573	-278.37280	70.36568	-3166.58911	-168.87868	907.89081	-3015.13525	-335.81845	65.02985	-3180.48096	-276.57693	35.30275	
553	4.600																																																																																																																																																																						-3086.49146	-151.40321	1379.56641	-2992.74512	-23.26882	1087.79053	-3099.39233	-335.17477	346.04645	-2943.53809	-40.08886	833.73889	-2985.25659	-429.87720	87.70601	-3019.43286	-416.69107	82.54311	-3267.73755	-23.05700	1252.78992	-3058.97729	-254.75511	476.44843	-3054.55786	-303.38666	46.53602	-3659.98975	10.36724	31.99042	-3109.17212	-291.82462	655.73322	-3340.77222	22.23683	922.09772	-3113.54663	-384.67731	73.86429	-3258.88135	-270.56287	1674.26917	-3130.05835	-269.81412	43.32689	-3589.04663	157.89908	76.35580	-3461.25806	-18.95672	253.88925	-3643.76025	109.49615	42.87871	-3161.02466	-172.12785	906.18726	-3159.55347	-316.30927	1586.75183	-3172.79150	-329.51331	47.30970	-3003.45801	-381.75333	77.41703	-3614.87231	87.58841	43.19990	-3008.64746	-338.59967	63.53555	-3175.96875	-282.67520	34.36414	
554	4.608																																																																																																																																																																						-3126.61621	-274.98514	40.92535	-3079.92285	-152.77515	1377.72974	-2989.05566	-22.37802	1085.27844	-3093.20068	-337.52222	345.10843	-2937.77881	-38.48701	831.79803	-2977.72681	-429.73703	87.16145	-3051.29565	-306.57300	45.16373	-3012.20630	-418.12088	81.21555	-3263.66357	-27.04008	1251.92151	-3053.90308	-255.12215	474.72498	-3660.22754	10.30331	32.35804	-3101.80518	-294.11987	655.01727	-3338.13965	16.42414	920.98462	-3108.85669	-389.57193	74.46654	-3249.90405	-277.52863	1673.00220	-3587.88208	162.21489	79.91440	-3461.72681	-20.13648	255.33597	-3644.30225	108.15025	44.96353	-3155.29834	-175.25433	905.43646	-3149.85718	-318.85229	1584.95776	-3167.68213	-334.21643	45.96009	-2997.14819	-383.38770	75.71185	-3616.89209	87.65807	43.71789	-3003.88403	-339.21796	61.75371	-3172.08276	-287.61316	33.58271	
555	4.617																																																																																																																																																																						-3124.62256	-277.76208	40.87917	-3073.13477	-154.05209	1375.58313	-2982.87158	-23.20893	1084.57837	-3089.19287	-338.99780	343.06570	-2931.81787	-38.51646	830.57050	-2972.69336	-431.22668	85.69299	-3084.97314	-289.38724	65.46777	-3005.87598	-418.94980	79.56966	-3049.55981	-255.33583	472.62787	-3047.85596	-308.18848	42.28463	-3660.34229	10.08355	32.78622	-3094.82471	-296.21652	654.64056	-3334.67896	11.93578	920.35132	-3103.39771	-392.62646	72.46108	-3240.86182	-280.11584	1671.80334	-3259.65601	-30.86742	1251.02930	-3590.67310	156.48077	81.80719	-3170.34814	-293.75775	36.29962	-3512.66846	168.28986	98.67944	-3149.25854	-178.78484	904.49316	-3161.39526	-336.95877	43.01301	-2991.71655	-383.83432	73.96661	-3686.91089	57.16920	25.86832	-3334.15991	-220.77254	1604.68970	-2999.51538	-339.74734	59.75896	
556	4.625																																																																																																																																																																						-3123.46582	-280.99585	39.89428	-3066.27295	-155.76970	1374.32935	-2977.78589	-22.93841	1082.83289	-2926.25586	-38.79184	829.51904	-2968.29028	-430.18140	81.44895	-3082.81104	-291.32748	63.59699	-3002.05884	-419.13806	76.06475	-3086.62402	-297.58542	653.60876	-3045.06079	-256.93832	470.73254	-3046.13257	-307.95078	39.64447	-3660.59497	9.89267	33.34353	-3331.25879	5.60528	919.96710	-3098.31079	-393.53586	68.27939	-3231.26221	-285.64182	1670.96741	-3255.40234	-36.16075	1249.28796	-3590.24829	159.54181	85.75275	-3169.17065	-295.87534	36.09793	-3085.25122	-341.28555	341.70718	-3142.94116	-182.42856	903.53650	-3128.65405	-325.20612	1582.84192	-3535.07959	5.29112	234.81294	-3158.39429	-337.85507	40.68086	-2987.89355	-383.85995	69.92867	-3659.73193	-37.97309	33.08969	-3687.00122	58.24122	27.55332	-2996.77686	-339.57306	55.96647	-3325.80103	-226.23674	1603.93286	-3166.98267	-300.39319	66.68520	
557	4.633																																																																																																																																																																						-3124.28833	-280.46280	39.45825	-3079.62183	-341.97018	338.62125	-3059.18970	-157.78978	1372.28796	-2972.68164	-22.87859	1081.60034	-3522.02441	126.07731	80.10783	-2920.68359	-38.53260	828.42236	-2966.56104	-427.49405	74.99062	-2999.59009	-416.75882	69.17165	-3079.20532	-300.51276	652.79895	-3041.93506	-256.21539	467.88217	-3660.90698	9.61538	34.09428	-3047.03760	-308.11575	37.04579	-3326.46777	-0.18048	919.26630	-3096.96704	-392.88266	65.80200	-3221.87207	-289.22717	1669.41833	-3250.92114	-41.18156	1248.19531	-3592.20972	153.71310	88.25307	-3169.81836	-295.92474	36.09175	-3136.22314	-186.27571	903.01788	-3560.20679	59.53865	64.32391	-3118.80200	-328.68594	1581.74231	-3158.02393	-337.95056	39.85814	-2986.83350	-382.16766	64.19600	-2995.42139	-336.78363	51.74476	-3167.05396	-299.74155	65.81937	
